<?xml version="1.0" encoding="UTF-8" standalone="no"?>
<!DOCTYPE svg PUBLIC "-//W3C//DTD SVG 1.1//EN" "http://www.w3.org/Graphics/SVG/1.1/DTD/svg11.dtd">
<svg width="100%" height="100%" viewBox="0 0 100 100" version="1.1" xmlns="http://www.w3.org/2000/svg" xmlns:xlink="http://www.w3.org/1999/xlink" xml:space="preserve" xmlns:serif="http://www.serif.com/" style="fill-rule:evenodd;clip-rule:evenodd;stroke-linejoin:round;stroke-miterlimit:2;">
    <g transform="matrix(-1.83697e-16,1,-1,-1.83697e-16,102.5,-2.5001)">
        <path d="M50.832,5L32.246,5C25.633,5 20,10.086 20,16.699L20,82.703C20,89.32 25.633,95 32.246,95L50.875,95C51.981,95 52.875,94.105 52.875,93C52.875,91.895 51.98,91 50.875,91L32.246,91C27.84,91 24,87.113 24,82.703L24,16.699C24,12.289 27.84,9 32.246,9L50.832,9C51.937,9 52.832,8.105 52.832,7C52.832,5.894 51.937,5 50.832,5L50.832,5Z" style="fill-rule:nonzero;"/>
        <path d="M55.27,33.434C54.489,32.653 53.223,32.653 52.442,33.434L36.587,49.289C36.212,49.664 36.001,50.172 36.001,50.703C36.001,51.234 36.212,51.742 36.587,52.117L52.442,67.972C52.833,68.363 53.344,68.558 53.856,68.558C54.368,68.558 54.879,68.363 55.27,67.972C56.051,67.191 56.051,65.925 55.27,65.144L43.125,52.999L83,52.999C84.106,52.999 85,52.105 85,50.999C85,49.894 84.106,48.999 83,48.999L42.531,48.999L55.269,36.265C56.05,35.48 56.05,34.214 55.269,33.433L55.27,33.434Z" style="fill-rule:nonzero;"/>
    </g>
</svg>
